<?xml version="1.0" encoding="utf-8"?>
<!-- Generator: Adobe Illustrator 23.0.1, SVG Export Plug-In . SVG Version: 6.00 Build 0)  -->
<svg version="1.1" id="Capa_1" xmlns="http://www.w3.org/2000/svg" xmlns:xlink="http://www.w3.org/1999/xlink" x="0px" y="0px"
	 viewBox="0 0 200 200" style="enable-background:new 0 0 200 200;" xml:space="preserve">
<style type="text/css">
	.st0{fill:#FFD600;}
	.st1{fill:#FFFFFF;}
	.st2{fill:#7D8084;}
	.st3{fill-rule:evenodd;clip-rule:evenodd;fill:#CC9905;}
	.st4{fill-rule:evenodd;clip-rule:evenodd;fill:#004946;}
	.st5{fill:#004946;}
	.st6{fill:#CB3327;}
	.st7{fill:#174885;}
	.st8{fill:#EAA03B;}
	.st9{fill:url(#SVGID_1_);}
	.st10{fill:#FFB71B;}
	.st11{fill:#00263E;}
	.st12{fill:#617485;}
	.st13{clip-path:url(#SVGID_3_);}
	.st14{clip-path:url(#SVGID_5_);}
	.st15{clip-path:url(#SVGID_9_);}
	.st16{clip-path:url(#SVGID_13_);}
	.st17{clip-path:url(#SVGID_17_);}
	.st18{clip-path:url(#SVGID_21_);}
	.st19{clip-path:url(#SVGID_25_);}
	.st20{clip-path:url(#SVGID_29_);}
	.st21{clip-path:url(#SVGID_33_);}
	.st22{clip-path:url(#SVGID_37_);}
	.st23{fill:#007297;}
	.st24{fill:#76777A;}
	.st25{clip-path:url(#SVGID_39_);fill:#231F20;}
	.st26{clip-path:url(#SVGID_39_);}
	.st27{clip-path:url(#SVGID_41_);fill:#231F20;}
	.st28{fill-rule:evenodd;clip-rule:evenodd;fill:#FFFFFF;}
	.st29{fill-rule:evenodd;clip-rule:evenodd;fill:#1D1D1B;}
	.st30{fill-rule:evenodd;clip-rule:evenodd;fill:#808080;}
	.st31{filter:url(#Adobe_OpacityMaskFilter);}
	.st32{mask:url(#mask-2_144_);fill-rule:evenodd;clip-rule:evenodd;fill:#808080;}
	.st33{filter:url(#Adobe_OpacityMaskFilter_1_);}
	.st34{mask:url(#mask-2_143_);fill-rule:evenodd;clip-rule:evenodd;fill:#808080;}
	.st35{filter:url(#Adobe_OpacityMaskFilter_2_);}
	.st36{mask:url(#mask-2_142_);fill-rule:evenodd;clip-rule:evenodd;fill:#808080;}
	.st37{filter:url(#Adobe_OpacityMaskFilter_3_);}
	.st38{mask:url(#mask-2_141_);fill-rule:evenodd;clip-rule:evenodd;fill:#808080;}
	.st39{filter:url(#Adobe_OpacityMaskFilter_4_);}
	.st40{mask:url(#mask-2_140_);fill-rule:evenodd;clip-rule:evenodd;fill:#808080;}
	.st41{filter:url(#Adobe_OpacityMaskFilter_5_);}
	.st42{mask:url(#mask-2_139_);fill-rule:evenodd;clip-rule:evenodd;fill:#808080;}
	.st43{filter:url(#Adobe_OpacityMaskFilter_6_);}
	.st44{mask:url(#mask-2_138_);fill-rule:evenodd;clip-rule:evenodd;fill:#808080;}
	.st45{filter:url(#Adobe_OpacityMaskFilter_7_);}
	.st46{mask:url(#mask-2_137_);fill-rule:evenodd;clip-rule:evenodd;fill:#808080;}
	.st47{filter:url(#Adobe_OpacityMaskFilter_8_);}
	.st48{mask:url(#mask-2_136_);fill-rule:evenodd;clip-rule:evenodd;fill:#808080;}
	.st49{filter:url(#Adobe_OpacityMaskFilter_9_);}
	.st50{mask:url(#mask-2_135_);fill-rule:evenodd;clip-rule:evenodd;fill:#808080;}
	.st51{filter:url(#Adobe_OpacityMaskFilter_10_);}
	.st52{mask:url(#mask-2_134_);fill-rule:evenodd;clip-rule:evenodd;fill:#808080;}
	.st53{filter:url(#Adobe_OpacityMaskFilter_11_);}
	.st54{mask:url(#mask-2_133_);fill-rule:evenodd;clip-rule:evenodd;fill:#808080;}
	.st55{filter:url(#Adobe_OpacityMaskFilter_12_);}
	.st56{mask:url(#mask-2_132_);fill-rule:evenodd;clip-rule:evenodd;fill:#808080;}
	.st57{filter:url(#Adobe_OpacityMaskFilter_13_);}
	.st58{mask:url(#mask-2_131_);fill-rule:evenodd;clip-rule:evenodd;fill:#808080;}
	.st59{filter:url(#Adobe_OpacityMaskFilter_14_);}
	.st60{mask:url(#mask-2_130_);fill-rule:evenodd;clip-rule:evenodd;fill:#808080;}
	.st61{filter:url(#Adobe_OpacityMaskFilter_15_);}
	.st62{mask:url(#mask-2_129_);fill-rule:evenodd;clip-rule:evenodd;fill:#808080;}
	.st63{filter:url(#Adobe_OpacityMaskFilter_16_);}
	.st64{mask:url(#mask-2_128_);fill-rule:evenodd;clip-rule:evenodd;fill:#808080;}
	.st65{filter:url(#Adobe_OpacityMaskFilter_17_);}
	.st66{mask:url(#mask-2_127_);fill-rule:evenodd;clip-rule:evenodd;fill:#808080;}
	.st67{filter:url(#Adobe_OpacityMaskFilter_18_);}
	.st68{mask:url(#mask-2_126_);fill-rule:evenodd;clip-rule:evenodd;fill:#808080;}
	.st69{filter:url(#Adobe_OpacityMaskFilter_19_);}
	.st70{mask:url(#mask-2_125_);fill-rule:evenodd;clip-rule:evenodd;fill:#808080;}
	.st71{filter:url(#Adobe_OpacityMaskFilter_20_);}
	.st72{mask:url(#mask-2_124_);fill-rule:evenodd;clip-rule:evenodd;fill:#808080;}
	.st73{filter:url(#Adobe_OpacityMaskFilter_21_);}
	.st74{mask:url(#mask-2_123_);fill-rule:evenodd;clip-rule:evenodd;fill:#808080;}
	.st75{filter:url(#Adobe_OpacityMaskFilter_22_);}
	.st76{mask:url(#mask-2_122_);fill-rule:evenodd;clip-rule:evenodd;fill:#808080;}
	.st77{filter:url(#Adobe_OpacityMaskFilter_23_);}
	.st78{mask:url(#mask-2_121_);fill-rule:evenodd;clip-rule:evenodd;fill:#808080;}
	.st79{filter:url(#Adobe_OpacityMaskFilter_24_);}
	.st80{mask:url(#mask-2_120_);fill-rule:evenodd;clip-rule:evenodd;fill:#808080;}
	.st81{filter:url(#Adobe_OpacityMaskFilter_25_);}
	.st82{mask:url(#mask-2_119_);fill-rule:evenodd;clip-rule:evenodd;fill:#808080;}
	.st83{filter:url(#Adobe_OpacityMaskFilter_26_);}
	.st84{mask:url(#mask-2_118_);fill-rule:evenodd;clip-rule:evenodd;fill:#808080;}
	.st85{filter:url(#Adobe_OpacityMaskFilter_27_);}
	.st86{mask:url(#mask-2_117_);fill-rule:evenodd;clip-rule:evenodd;fill:#808080;}
	.st87{filter:url(#Adobe_OpacityMaskFilter_28_);}
	.st88{mask:url(#mask-2_116_);fill-rule:evenodd;clip-rule:evenodd;fill:#808080;}
	.st89{filter:url(#Adobe_OpacityMaskFilter_29_);}
	.st90{mask:url(#mask-2_115_);fill-rule:evenodd;clip-rule:evenodd;fill:#808080;}
	.st91{filter:url(#Adobe_OpacityMaskFilter_30_);}
	.st92{mask:url(#mask-2_114_);fill-rule:evenodd;clip-rule:evenodd;fill:#808080;}
	.st93{filter:url(#Adobe_OpacityMaskFilter_31_);}
	.st94{mask:url(#mask-2_113_);fill-rule:evenodd;clip-rule:evenodd;fill:#808080;}
	.st95{filter:url(#Adobe_OpacityMaskFilter_32_);}
	.st96{mask:url(#mask-2_112_);fill-rule:evenodd;clip-rule:evenodd;fill:#808080;}
	.st97{filter:url(#Adobe_OpacityMaskFilter_33_);}
	.st98{mask:url(#mask-2_111_);fill-rule:evenodd;clip-rule:evenodd;fill:#808080;}
	.st99{filter:url(#Adobe_OpacityMaskFilter_34_);}
	.st100{mask:url(#mask-2_110_);fill-rule:evenodd;clip-rule:evenodd;fill:#808080;}
	.st101{filter:url(#Adobe_OpacityMaskFilter_35_);}
	.st102{mask:url(#mask-2_109_);fill-rule:evenodd;clip-rule:evenodd;fill:#808080;}
	.st103{filter:url(#Adobe_OpacityMaskFilter_36_);}
	.st104{mask:url(#mask-2_108_);fill-rule:evenodd;clip-rule:evenodd;fill:#808080;}
	.st105{filter:url(#Adobe_OpacityMaskFilter_37_);}
	.st106{mask:url(#mask-2_107_);fill-rule:evenodd;clip-rule:evenodd;fill:#808080;}
	.st107{filter:url(#Adobe_OpacityMaskFilter_38_);}
	.st108{mask:url(#mask-2_106_);fill-rule:evenodd;clip-rule:evenodd;fill:#808080;}
	.st109{filter:url(#Adobe_OpacityMaskFilter_39_);}
	.st110{mask:url(#mask-2_105_);fill-rule:evenodd;clip-rule:evenodd;fill:#808080;}
	.st111{filter:url(#Adobe_OpacityMaskFilter_40_);}
	.st112{mask:url(#mask-2_104_);fill-rule:evenodd;clip-rule:evenodd;fill:#808080;}
	.st113{filter:url(#Adobe_OpacityMaskFilter_41_);}
	.st114{mask:url(#mask-2_103_);fill-rule:evenodd;clip-rule:evenodd;fill:#808080;}
	.st115{filter:url(#Adobe_OpacityMaskFilter_42_);}
	.st116{mask:url(#mask-2_102_);fill-rule:evenodd;clip-rule:evenodd;fill:#808080;}
	.st117{filter:url(#Adobe_OpacityMaskFilter_43_);}
	.st118{mask:url(#mask-2_101_);fill-rule:evenodd;clip-rule:evenodd;fill:#808080;}
	.st119{filter:url(#Adobe_OpacityMaskFilter_44_);}
	.st120{mask:url(#mask-2_100_);fill-rule:evenodd;clip-rule:evenodd;fill:#808080;}
	.st121{filter:url(#Adobe_OpacityMaskFilter_45_);}
	.st122{mask:url(#mask-2_99_);fill-rule:evenodd;clip-rule:evenodd;fill:#808080;}
	.st123{filter:url(#Adobe_OpacityMaskFilter_46_);}
	.st124{mask:url(#mask-2_98_);fill-rule:evenodd;clip-rule:evenodd;fill:#808080;}
	.st125{filter:url(#Adobe_OpacityMaskFilter_47_);}
	.st126{mask:url(#mask-2_97_);fill-rule:evenodd;clip-rule:evenodd;fill:#808080;}
	.st127{filter:url(#Adobe_OpacityMaskFilter_48_);}
	.st128{mask:url(#mask-2_96_);fill-rule:evenodd;clip-rule:evenodd;fill:#808080;}
	.st129{filter:url(#Adobe_OpacityMaskFilter_49_);}
	.st130{mask:url(#mask-2_95_);fill-rule:evenodd;clip-rule:evenodd;fill:#808080;}
	.st131{filter:url(#Adobe_OpacityMaskFilter_50_);}
	.st132{mask:url(#mask-2_94_);fill-rule:evenodd;clip-rule:evenodd;fill:#808080;}
	.st133{filter:url(#Adobe_OpacityMaskFilter_51_);}
	.st134{mask:url(#mask-2_93_);fill-rule:evenodd;clip-rule:evenodd;fill:#808080;}
	.st135{filter:url(#Adobe_OpacityMaskFilter_52_);}
	.st136{mask:url(#mask-2_92_);fill-rule:evenodd;clip-rule:evenodd;fill:#808080;}
	.st137{filter:url(#Adobe_OpacityMaskFilter_53_);}
	.st138{mask:url(#mask-2_91_);fill-rule:evenodd;clip-rule:evenodd;fill:#808080;}
	.st139{filter:url(#Adobe_OpacityMaskFilter_54_);}
	.st140{mask:url(#mask-2_90_);fill-rule:evenodd;clip-rule:evenodd;fill:#808080;}
	.st141{filter:url(#Adobe_OpacityMaskFilter_55_);}
	.st142{mask:url(#mask-2_89_);fill-rule:evenodd;clip-rule:evenodd;fill:#808080;}
	.st143{filter:url(#Adobe_OpacityMaskFilter_56_);}
	.st144{mask:url(#mask-2_88_);fill-rule:evenodd;clip-rule:evenodd;fill:#808080;}
	.st145{filter:url(#Adobe_OpacityMaskFilter_57_);}
	.st146{mask:url(#mask-2_87_);fill-rule:evenodd;clip-rule:evenodd;fill:#808080;}
	.st147{filter:url(#Adobe_OpacityMaskFilter_58_);}
	.st148{mask:url(#mask-2_86_);fill-rule:evenodd;clip-rule:evenodd;fill:#808080;}
	.st149{filter:url(#Adobe_OpacityMaskFilter_59_);}
	.st150{mask:url(#mask-2_85_);fill-rule:evenodd;clip-rule:evenodd;fill:#808080;}
	.st151{filter:url(#Adobe_OpacityMaskFilter_60_);}
	.st152{mask:url(#mask-2_84_);fill-rule:evenodd;clip-rule:evenodd;fill:#808080;}
	.st153{filter:url(#Adobe_OpacityMaskFilter_61_);}
	.st154{mask:url(#mask-2_83_);fill-rule:evenodd;clip-rule:evenodd;fill:#808080;}
	.st155{filter:url(#Adobe_OpacityMaskFilter_62_);}
	.st156{mask:url(#mask-2_82_);fill-rule:evenodd;clip-rule:evenodd;fill:#808080;}
	.st157{filter:url(#Adobe_OpacityMaskFilter_63_);}
	.st158{mask:url(#mask-2_81_);fill-rule:evenodd;clip-rule:evenodd;fill:#808080;}
	.st159{filter:url(#Adobe_OpacityMaskFilter_64_);}
	.st160{mask:url(#mask-2_80_);fill-rule:evenodd;clip-rule:evenodd;fill:#808080;}
	.st161{filter:url(#Adobe_OpacityMaskFilter_65_);}
	.st162{mask:url(#mask-2_79_);fill-rule:evenodd;clip-rule:evenodd;fill:#808080;}
	.st163{filter:url(#Adobe_OpacityMaskFilter_66_);}
	.st164{mask:url(#mask-2_78_);fill-rule:evenodd;clip-rule:evenodd;fill:#808080;}
	.st165{filter:url(#Adobe_OpacityMaskFilter_67_);}
	.st166{mask:url(#mask-2_77_);fill-rule:evenodd;clip-rule:evenodd;fill:#808080;}
	.st167{filter:url(#Adobe_OpacityMaskFilter_68_);}
	.st168{mask:url(#mask-2_76_);fill-rule:evenodd;clip-rule:evenodd;fill:#808080;}
	.st169{filter:url(#Adobe_OpacityMaskFilter_69_);}
	.st170{mask:url(#mask-2_75_);fill-rule:evenodd;clip-rule:evenodd;fill:#808080;}
	.st171{filter:url(#Adobe_OpacityMaskFilter_70_);}
	.st172{mask:url(#mask-2_74_);fill-rule:evenodd;clip-rule:evenodd;fill:#808080;}
	.st173{filter:url(#Adobe_OpacityMaskFilter_71_);}
	.st174{mask:url(#mask-2_73_);fill-rule:evenodd;clip-rule:evenodd;fill:#808080;}
	.st175{fill:#6F6F6E;}
	.st176{fill:#1D1E1C;}
	.st177{fill:#D90717;}
	.st178{fill:#C2933F;}
	.st179{fill-rule:evenodd;clip-rule:evenodd;fill:#C2933F;}
	.st180{fill:#004880;}
	.st181{fill:#BEBDBC;}
	.st182{fill:#F5E214;}
	.st183{fill:#FFFFFF;stroke:#FFFFFF;stroke-width:0.0938;stroke-miterlimit:10;}
	.st184{fill:#27388E;stroke:#27388E;stroke-width:0.0938;stroke-miterlimit:10;}
	.st185{fill:#E41C25;stroke:#E41C25;stroke-width:0.0938;stroke-miterlimit:10;}
	.st186{fill-rule:evenodd;clip-rule:evenodd;}
	.st187{fill:#008887;}
	.st188{fill:#0A74B7;}
	.st189{fill:#D2030D;}
	.st190{fill:#0071BC;}
	.st191{fill:#003DA5;}
	.st192{fill:#84BD00;}
	.st193{fill:#1D0288;}
	.st194{fill:#EC1952;}
	.st195{fill:#F594AC;}
	.st196{fill:#006848;}
	.st197{fill:#1AB374;}
	.st198{fill:#201B51;}
	.st199{fill:#823D98;}
</style>
<path class="st197" d="M159.5,118.26c-0.07,4.41-0.09,8.82-0.14,13.24c-0.02,2.01-0.17,2.16-2.21,2.16c-4.2,0-8.4,0.01-12.6,0
	c-2.12,0-2.21-0.1-2.21-2.28c0-23.87-0.05-47.75,0.04-71.62c0.01-3.69-0.84-5.01-5.01-5c-21.53,0.03-43.07,0.01-64.6,0.01
	c-0.73,0-1.46,0-2.41,0c0,1.12,0.1,1.93-0.03,2.7c-0.12,0.67-0.36,1.69-0.79,1.84c-0.67,0.23-1.75,0.11-2.3-0.32
	c-2.97-2.28-5.84-4.7-8.74-7.08c-1.3-1.07-2.64-2.09-3.84-3.26c-1.31-1.28-1.33-2.9-0.03-4.18c1.38-1.36,2.93-2.54,4.43-3.78
	c2.63-2.17,5.24-4.38,7.95-6.44c0.66-0.5,1.77-0.8,2.53-0.61c0.43,0.11,0.76,1.38,0.8,2.15c0.12,2.53-0.34,2.35,2.47,2.35
	c23.93,0,47.85,0,71.78,0.01c5.83,0,10.36,2.62,12.99,7.71c1.23,2.37,1.68,5.37,1.72,8.1c0.18,11.91,0.07,23.82,0.08,35.73"/>
<path class="st197" d="M105.52,78.2c2.18-2.79,3.93-5.5,6.14-7.74c3.05-3.09,6.69-5.26,11.34-4.96c1.48,0.1,2.98,0.01,4.46,0.07
	c2.62,0.12,4,2.28,3.32,4.79c-0.48,1.77-0.63,3.62-0.94,5.44c-0.29,1.71-0.55,3.43-0.87,5.13c-0.31,1.66-2.28,2.83-4.32,2.72
	c-1.74-0.09-3.53-0.34-5.21-0.04c-3.48,0.61-6.25,2.66-8.44,5.33c-1.41,1.72-2.64,3.66-3.58,5.67c-0.68,1.47-1.02,3.23-1.04,4.87
	c-0.09,10.53-0.05,21.05-0.05,31.58c0,2.59,0,2.59-2.66,2.59c-5,0-10-0.04-14.99,0.02c-1.4,0.02-1.98-0.36-1.98-1.87
	c0.04-20.36,0.02-40.72,0.04-61.09c0-2.36,1.27-3.6,3.59-3.61c3.99-0.02,7.97-0.02,11.96,0c2.43,0.01,3.19,0.78,3.21,3.28
	C105.54,72.92,105.52,75.45,105.52,78.2z"/>
<path class="st197" d="M52.38,81.22c0.07-4.41,0.09-8.82,0.14-13.24c0.02-2.01,0.17-2.16,2.21-2.16c4.2,0,8.4-0.01,12.6,0
	c2.12,0,2.21,0.1,2.21,2.28c0,23.87,0.05,47.75-0.04,71.62c-0.01,3.69,0.84,5.01,5.01,5c21.53-0.03,43.07-0.01,64.6-0.01
	c0.73,0,1.46,0,2.41,0c0-1.12-0.1-1.93,0.03-2.7c0.12-0.67,0.36-1.69,0.79-1.84c0.67-0.23,1.75-0.11,2.3,0.32
	c2.97,2.28,5.84,4.7,8.74,7.08c1.3,1.07,2.64,2.09,3.84,3.26c1.31,1.28,1.33,2.9,0.03,4.18c-1.38,1.36-2.93,2.54-4.43,3.78
	c-2.63,2.17-5.24,4.38-7.95,6.44c-0.66,0.5-1.77,0.8-2.53,0.61c-0.43-0.11-0.76-1.38-0.8-2.15c-0.12-2.53,0.34-2.35-2.47-2.35
	c-23.93,0-47.85,0-71.78-0.01c-5.83,0-10.36-2.62-12.99-7.71c-1.23-2.37-1.68-5.37-1.72-8.1c-0.18-11.91-0.07-23.82-0.08-35.73"/>
</svg>
